<svg xmlns="http://www.w3.org/2000/svg" width="13.144" height="11.264" viewBox="0 0 13.144 11.264"><g id="Group_1925" data-name="Group 1925" transform="translate(-1100.581 -1043.868)"><path id="Down_Arrow_3_" d="M5.632,0A.51.51,0,0,0,5.27.15L.15,5.27a.512.512,0,0,0,.724.724L5.632,1.236,10.39,5.994a.512.512,0,1,0,.724-.724L5.994.15A.511.511,0,0,0,5.632,0Z" transform="translate(1106.725 1043.868) rotate(90)" fill="#343434"></path><path id="Down_Arrow_3_2" data-name="Down_Arrow_3_" d="M5.632,0A.51.51,0,0,0,5.27.15L.15,5.27a.512.512,0,0,0,.724.724L5.632,1.236,10.39,5.994a.512.512,0,1,0,.724-.724L5.994.15A.511.511,0,0,0,5.632,0Z" transform="translate(1113.725 1043.868) rotate(90)" fill="#343434"></path></g></svg>